<svg xmlns="http://www.w3.org/2000/svg" xmlns:xlink="http://www.w3.org/1999/xlink" version="1.1" x="0px" y="0px" viewBox="0 0 80 80" enable-background="new 0 0 80 80" xml:space="preserve"><g><g><path fill="#000000" d="M28,52.5c-4.6,0-8.2-5.7-8.2-13s3.6-13,8.2-13s8.2,5.7,8.2,13S32.6,52.5,28,52.5z M28,28.5    c-3.4,0-6.2,5-6.2,11s2.9,11,6.2,11s6.2-5,6.2-11S31.4,28.5,28,28.5z"></path></g><g><path fill="#000000" d="M28,41.5c-0.9,0-1.6-0.9-1.6-2s0.7-2,1.6-2s1.6,0.9,1.6,2S28.9,41.5,28,41.5z"></path></g><g><path fill="#000000" d="M40.3,64.3c-0.1,0-0.2,0-0.3,0l-25.2-2.6c-1.6-0.2-2.8-1.5-2.8-2.9V20.3c0-1.6,1.5-2.8,2.9-2.9l25-2.6    c1.8-0.2,3.1,1.2,3.1,2.9v43.7C43,63,41.8,64.3,40.3,64.3z M40.2,16.7c0,0-0.1,0-0.1,0l-25,2.6c-0.5,0.1-1.1,0.5-1.1,0.9v38.5    c0,0.5,0.5,0.9,1,0.9l25.3,2.6c0.7,0,0.7-0.9,0.7-1V17.7C41,17.2,40.7,16.7,40.2,16.7z"></path></g></g><g><g><path fill="#000000" d="M46.7,50.1l-1.3-1.5c2.5-2.1,3.9-5.4,3.9-9c0-3.6-1.5-7-4-9.1l1.3-1.6c3,2.4,4.8,6.4,4.8,10.7    C51.3,43.7,49.6,47.6,46.7,50.1z"></path></g><g><path fill="#000000" d="M57.5,64.3c-0.1,0-0.2,0-0.3,0l-10.8-0.8l0.1-2l10.8,0.8c0.6,0,1.1-0.1,1.4-0.4c0.2-0.2,0.3-0.3,0.3-0.6    V17.7c0-0.2-0.1-0.4-0.3-0.6c-0.3-0.3-0.8-0.4-1.4-0.4l-10.7,0.8l-0.2-2l10.7-0.8c1.2-0.1,2.2,0.3,3,0.9c0.6,0.5,0.9,1.3,0.9,2    v43.7c0,0.8-0.3,1.5-0.9,2C59.5,64,58.5,64.3,57.5,64.3z"></path></g></g><g><g><path fill="#000000" d="M69,62.3c-0.1,0-0.2,0-0.3,0l-5.5-0.7l0.3-2l5.4,0.7c0-0.1,0.1-0.4,0.1-0.8v-40c0-0.4-0.1-0.7-0.1-0.8    l-5.2,0.7l-0.3-2l5.3-0.7c0.6-0.1,1.1,0.1,1.5,0.4c0.5,0.5,0.8,1.3,0.8,2.3v40c0,1.1-0.3,1.9-0.8,2.3C69.8,62.1,69.4,62.3,69,62.3    z"></path></g></g></svg>