<svg xmlns="http://www.w3.org/2000/svg" xmlns:xlink="http://www.w3.org/1999/xlink" version="1.1" x="0px" y="0px" viewBox="0 0 100 100" enable-background="new 0 0 100 100" xml:space="preserve"><polygon points="69.783,1.355 32.62,1.355 32.62,10.583 34.809,10.583 34.809,3.544 68.909,3.544 87.341,21.064 87.341,74.679   80.301,74.679 80.301,76.869 89.529,76.869 89.529,20.124 "/><polygon points="58.831,12.307 21.668,12.307 21.668,21.536 23.856,21.536 23.856,14.496 57.957,14.496 76.387,32.016   76.387,85.632 69.348,85.632 69.348,87.823 78.577,87.823 78.577,31.077 "/><path d="M47.878,22.76H10.715v75.514h56.91V41.529L47.878,22.76z M65.435,96.086H12.903V24.949h34.1l18.432,17.52  C65.435,42.469,65.435,96.086,65.435,96.086z"/><path d="M51.163,44.094c-0.742,0.135-20.166,3.678-20.166,3.678l0.032,21.142c-0.246-0.037-0.417-0.069-0.591-0.089  c-2.151-0.241-4.099,0.195-5.65,1.801c-1.821,1.886-1.369,4.49,0.96,5.694c2.402,1.241,5.827,0.562,7.566-1.504  c0.574-0.681,0.933-1.443,0.931-2.361c-0.01-5.905,0.015-18.34,0.015-18.34c4.647-0.857,9.263-1.708,13.89-2.561  c0,4.735,0,9.395,0,14.045c-0.092,0.017-0.132,0.034-0.17,0.029c-0.119-0.015-0.237-0.04-0.356-0.056  c-2.06-0.281-3.935,0.13-5.503,1.553c-1.818,1.65-1.777,4.111,0.061,5.493c0.796,0.599,1.71,0.907,2.685,0.992  c1.8,0.158,3.436-0.288,4.842-1.456c1.246-1.035,1.485-2.401,1.475-3.958L51.163,44.094z"/></svg>