<svg xmlns="http://www.w3.org/2000/svg" xmlns:xlink="http://www.w3.org/1999/xlink" version="1.1" x="0px" y="0px" viewBox="0 0 90 90" style="enable-background:new 0 0 90 90;" xml:space="preserve"><g><g><path d="M5.309,55.902c1.024-0.234,1.665-1.25,1.435-2.27C6.481,52.46,6.27,51.27,6.112,50.068    c-0.135-1.042-1.096-1.777-2.129-1.639c-1.04,0.137-1.773,1.09-1.636,2.129c0.172,1.32,0.402,2.622,0.692,3.905    c0.198,0.883,0.983,1.484,1.851,1.484C5.027,55.947,5.168,55.932,5.309,55.902z"></path><path d="M87.92,44.987c0-5.842-1.204-11.519-3.434-16.77c-0.019-0.058-0.013-0.119-0.038-0.176    c-0.194-0.45-0.432-0.874-0.64-1.316c-0.282-0.599-0.557-1.198-0.867-1.784c-0.081-0.153-0.145-0.317-0.228-0.469    c-0.033-0.061-0.09-0.097-0.129-0.153c-1.747-3.173-3.87-6.159-6.413-8.848C69.621,8.548,61.026,4.062,51.69,2.588    c-0.051-0.012-0.091-0.045-0.144-0.053c-2.166-0.334-4.384-0.504-6.594-0.504c-11.234,0-21.862,4.313-29.927,12.143    C7.37,21.61,2.772,31.568,2.084,42.209c-0.067,1.046,0.727,1.951,1.773,2.018c0.041,0.004,0.083,0.004,0.124,0.004    c0.992,0,1.828-0.771,1.893-1.777c0.627-9.699,4.818-18.778,11.796-25.558C25.022,9.76,34.712,5.828,44.952,5.828    c1.019,0,2.04,0.041,3.056,0.12c0.003,0,0.006,0.002,0.009,0.003c9.69,0.757,18.71,5.066,25.393,12.132    c2.469,2.611,4.524,5.52,6.168,8.626c0.278,0.525,0.526,1.064,0.78,1.601c2.438,5.166,3.763,10.83,3.763,16.677    c0,0.904-0.051,1.807-0.113,2.709c-0.043,0.627-0.113,1.244-0.186,1.86c-0.076,0.646-0.136,1.295-0.244,1.932    c-1.6,9.54-6.64,18.108-14.212,24.138c-2.329,1.856-4.827,3.392-7.437,4.655c-5.416,2.608-11.407,3.914-17.413,3.854    c-1.31-0.016-2.616-0.101-3.916-0.246c-0.5-0.055-0.998-0.14-1.496-0.214c-1.025-0.155-2.042-0.346-3.051-0.582    c-0.677-0.157-1.358-0.292-2.027-0.486C22.125,79.15,12.766,70.515,8.345,58.921c-0.376-0.983-1.476-1.476-2.452-1.098    c-0.979,0.371-1.471,1.469-1.098,2.448c4.849,12.718,15.117,22.19,28.173,25.985c0.382,0.11,0.769,0.191,1.153,0.29    c0.046,0.016,0.08,0.05,0.128,0.062c0.159,0.041,0.323,0.053,0.483,0.092c1.543,0.378,3.098,0.682,4.663,0.888    c0.169,0.022,0.338,0.034,0.507,0.054c1.685,0.202,3.378,0.327,5.073,0.327c0.142,0,0.283-0.023,0.425-0.025    c1.358-0.013,2.702-0.099,4.035-0.235c0.306-0.033,0.609-0.076,0.914-0.115c1.39-0.172,2.764-0.408,4.119-0.713    c0.064-0.015,0.129-0.026,0.193-0.041c3.104-0.714,6.104-1.774,8.971-3.167c0.037-0.018,0.077-0.03,0.115-0.048    c0.014-0.007,0.022-0.02,0.036-0.028c2.786-1.367,5.457-3.016,7.949-5.002c8.291-6.604,13.811-15.98,15.576-26.422    c0.002-0.012,0.01-0.022,0.012-0.034c0.003-0.019,0.004-0.04,0.007-0.059c0.007-0.041,0.019-0.081,0.026-0.123    c0.004-0.022-0.005-0.043-0.002-0.065c0.027-0.163,0.037-0.329,0.062-0.493c0.014-0.056,0.047-0.103,0.055-0.162    c0.062-0.423,0.078-0.862,0.127-1.29c0.078-0.672,0.153-1.342,0.199-2.019c0.015-0.216,0.052-0.425,0.063-0.642    c0.004-0.068-0.025-0.127-0.029-0.194C87.866,46.393,87.92,45.691,87.92,44.987z"></path></g><g><path d="M60.87,63.47h-9.143c-0.579,0-1.048-0.469-1.048-1.048V27.578c0-0.579,0.469-1.048,1.048-1.048h9.143    c0.579,0,1.048,0.469,1.048,1.048v34.845C61.918,63.001,61.449,63.47,60.87,63.47z"></path><path d="M38.273,63.47H29.13c-0.579,0-1.048-0.469-1.048-1.048V27.578c0-0.579,0.469-1.048,1.048-1.048h9.143    c0.579,0,1.048,0.469,1.048,1.048v34.845C39.321,63.001,38.852,63.47,38.273,63.47z"></path></g></g></svg>