<svg xmlns="http://www.w3.org/2000/svg" xmlns:xlink="http://www.w3.org/1999/xlink" version="1.1" x="0px" y="0px" viewBox="0 0 90 90" style="enable-background:new 0 0 90 90;" xml:space="preserve"><g><path d="M40.6,42.4l18.6-15.1c2.2-1.8,5.5-0.2,5.5,2.6V45v15.1c0,2.8-3.3,4.4-5.5,2.6l-18.6-15   C38.9,46.3,38.9,43.8,40.6,42.4z"></path><g><path d="M5.3,55.9c1-0.2,1.7-1.2,1.4-2.3c-0.3-1.2-0.5-2.4-0.6-3.6C6,49,5,48.3,4,48.4c-1,0.1-1.8,1.1-1.6,2.1    c0.2,1.3,0.4,2.6,0.7,3.9c0.2,0.9,1,1.5,1.9,1.5C5,55.9,5.2,55.9,5.3,55.9z"></path><path d="M87.9,45c0-5.8-1.2-11.5-3.4-16.8c0-0.1,0-0.1,0-0.2c-0.2-0.4-0.4-0.9-0.6-1.3c-0.3-0.6-0.6-1.2-0.9-1.8    c-0.1-0.2-0.1-0.3-0.2-0.5c0-0.1-0.1-0.1-0.1-0.2C81,21,78.8,18,76.3,15.4C69.6,8.5,61,4.1,51.7,2.6c-0.1,0-0.1,0-0.1-0.1    C49.4,2.2,47.2,2,45,2C33.7,2,23.1,6.3,15,14.2c-7.7,7.4-12.3,17.4-12.9,28c-0.1,1,0.7,2,1.8,2H4c1,0,1.8-0.8,1.9-1.8    c0.6-9.7,4.8-18.8,11.8-25.6c7.3-7,17-11,27.3-11c1,0,2,0,3.1,0.1l0,0C57.8,6.7,66.8,11,73.5,18c2.5,2.6,4.5,5.5,6.2,8.6    c0.3,0.5,0.5,1.1,0.8,1.6c2.4,5.2,3.8,10.8,3.8,16.7c0,0.9-0.1,1.8-0.1,2.7c0,0.6-0.1,1.2-0.2,1.9c-0.1,0.6-0.1,1.3-0.2,1.9    C82,61,76.9,69.6,69.4,75.6c-2.3,1.9-4.8,3.4-7.4,4.7c-5.4,2.6-11.4,3.9-17.4,3.9c-1.3,0-2.6-0.1-3.9-0.2c-0.5-0.1-1-0.1-1.5-0.2    c-1-0.2-2-0.3-3.1-0.6c-0.7-0.2-1.4-0.3-2-0.5c-12-3.6-21.3-12.2-25.8-23.8c-0.4-1-1.5-1.5-2.5-1.1s-1.5,1.5-1.1,2.4    C9.6,73,19.9,82.5,33,86.3c0.4,0.1,0.8,0.2,1.2,0.3c0,0,0.1,0,0.1,0.1c0.2,0,0.3,0.1,0.5,0.1c1.5,0.4,3.1,0.7,4.7,0.9    c0.2,0,0.3,0,0.5,0.1c1.7,0.2,3.4,0.3,5.1,0.3c0.1,0,0.3,0,0.4,0c1.4,0,2.7-0.1,4-0.2c0.3,0,0.6-0.1,0.9-0.1    c1.4-0.2,2.8-0.4,4.1-0.7c0.1,0,0.1,0,0.2,0c3.1-0.7,6.1-1.8,9-3.2h0.1l0,0c2.8-1.4,5.5-3,7.9-5c8.3-6.6,13.8-16,15.6-26.4l0,0    c0,0,0,0,0-0.1v-0.1c0,0,0,0,0-0.1c0-0.2,0-0.3,0.1-0.5c0-0.1,0-0.1,0.1-0.2c0.1-0.4,0.1-0.9,0.1-1.3c0.1-0.7,0.2-1.3,0.2-2    c0-0.2,0.1-0.4,0.1-0.6c0-0.1,0-0.1,0-0.2C87.9,46.4,87.9,45.7,87.9,45z"></path></g><path d="M27.7,26.6h9.1c0.6,0,1,0.5,1,1v34.8c0,0.6-0.5,1-1,1h-9.1c-0.6,0-1-0.5-1-1V27.6   C26.7,27,27.2,26.6,27.7,26.6z"></path></g></svg>