<svg xmlns="http://www.w3.org/2000/svg" xmlns:xlink="http://www.w3.org/1999/xlink" version="1.1" x="0px" y="0px" viewBox="0 0 80 80" enable-background="new 0 0 80 80" xml:space="preserve"><g><g><g><path fill="#000000" d="M32.5,52.2c-3.5-2.7-5.6-6.8-5.6-11.2c0-4.2,1.8-8.1,5.1-10.8l1.3,1.5c-2.8,2.3-4.3,5.7-4.3,9.3     c0,3.8,1.7,7.3,4.8,9.6L32.5,52.2z"></path></g><g><path fill="#000000" d="M49.5,52.2l-1.2-1.6c3-2.3,4.8-5.8,4.8-9.6c0-3.6-1.6-7-4.3-9.3l1.3-1.5c3.2,2.7,5.1,6.6,5.1,10.8     C55,45.4,53,49.5,49.5,52.2z"></path></g></g><g><path fill="#000000" d="M41,46.3c-3,0-5.4-2.4-5.4-5.4s2.4-5.4,5.4-5.4s5.4,2.4,5.4,5.4S44,46.3,41,46.3z M41,37.6    c-1.9,0-3.4,1.5-3.4,3.4s1.5,3.4,3.4,3.4c1.9,0,3.4-1.5,3.4-3.4S42.9,37.6,41,37.6z"></path></g><g><g><path fill="#000000" d="M28,57.9c-5.4-4.1-8.4-10.3-8.4-17c0-6.3,2.8-12.3,7.7-16.4l1.3,1.5c-4.4,3.7-7,9.1-7,14.9     c0,6.1,2.8,11.7,7.6,15.4L28,57.9z"></path></g><g><path fill="#000000" d="M53.9,57.9l-1.2-1.6c4.9-3.7,7.6-9.3,7.6-15.4c0-5.8-2.5-11.2-7-14.9l1.3-1.5c4.9,4.1,7.7,10.1,7.7,16.4     C62.3,47.6,59.3,53.8,53.9,57.9z"></path></g></g></g></svg>