<svg xmlns="http://www.w3.org/2000/svg" xmlns:xlink="http://www.w3.org/1999/xlink" version="1.1" x="0px" y="0px" viewBox="0 0 80 80" enable-background="new 0 0 80 80" xml:space="preserve"><g><g><g><path fill="#000000" d="M51,37.2V22.8l8.2,7.2L51,37.2z M53,27.2v5.6l3.2-2.8L53,27.2z"></path></g><g><path fill="#000000" d="M25,42h-2c0-7.3,5.9-13,13.3-13h16.4v2H36.3C30,31,25,35.8,25,42z"></path></g></g><g><g><path fill="#000000" d="M31,61.2L22.8,54l8.2-7.2V61.2z M25.8,54l3.2,2.8v-5.6L25.8,54z"></path></g><g><path fill="#000000" d="M45.4,55H29v-2h16.4c6.4,0,11.3-4.8,11.3-11h2C58.7,49.3,52.9,55,45.4,55z"></path></g></g></g></svg>