<svg xmlns="http://www.w3.org/2000/svg" xmlns:xlink="http://www.w3.org/1999/xlink" version="1.1" x="0px" y="0px" viewBox="0 0 80 80" enable-background="new 0 0 80 80" xml:space="preserve"><g><path fill="#000000" d="M52,60H38v-2h14c9.4,0,17-7.6,17-17s-7.6-17-17-17H31c-9.4,0-17,7.6-17,17h-2c0-10.5,8.5-19,19-19h21   c10.5,0,19,8.5,19,19S62.5,60,52,60z"></path></g><g><path fill="#000000" d="M23.5,65C17.2,65,12,59.8,12,53.5S17.2,42,23.5,42S35,47.2,35,53.5S29.8,65,23.5,65z M23.5,44   c-5.2,0-9.5,4.3-9.5,9.5s4.3,9.5,9.5,9.5s9.5-4.3,9.5-9.5S28.7,44,23.5,44z"></path></g><g><rect x="22" y="49" fill="#000000" width="2" height="10"></rect></g><g><polygon fill="#000000" points="43.7,28.7 42.3,27.3 47.1,22.5 42.3,17.7 43.7,16.3 49.9,22.5  "></polygon></g></svg>