<svg xmlns="http://www.w3.org/2000/svg" xmlns:xlink="http://www.w3.org/1999/xlink" version="1.1" x="0px" y="0px" viewBox="0 0 80 80" enable-background="new 0 0 80 80" xml:space="preserve"><g><g><path fill="#000000" d="M33.4,56.4c-6.4,0-12.4-2.5-17-7c-4.5-4.5-7-10.6-7-17s2.5-12.4,7-17c4.5-4.5,10.6-7,17-7    c6.4,0,12.4,2.5,17,7c4.5,4.5,7,10.6,7,17s-2.5,12.4-7,17C45.9,53.9,39.9,56.4,33.4,56.4z M33.4,10.4c-5.9,0-11.4,2.3-15.6,6.4    s-6.4,9.7-6.4,15.6s2.3,11.4,6.4,15.6s9.7,6.4,15.6,6.4c5.9,0,11.4-2.3,15.6-6.4s6.4-9.7,6.4-15.6S53.1,21,49,16.8    S39.3,10.4,33.4,10.4z"></path></g><g><path fill="#000000" d="M69.4,72.6L52.5,55.7l4.2-4.2l16.9,16.9L69.4,72.6z M55.4,55.7l14.1,14.1l1.4-1.4L56.8,54.3L55.4,55.7z"></path></g><g><rect x="49.4" y="50.8" transform="matrix(0.7071 0.7071 -0.7071 0.7071 52.1279 -22.2161)" fill="#000000" width="7" height="2"></rect></g><g><g><g><path fill="#000000" d="M30.5,38.3c0.5,0.9-0.3,2.4-1.9,3.1c-1.5,0.8-3.2,0.7-3.6-0.3c-0.5-0.9,0.2-2.6,1.9-3.1      C28.5,37.4,30,37.3,30.5,38.3z"></path></g><g><rect x="29" y="29" fill="#000000" width="2" height="10"></rect></g></g><g><g><path fill="#000000" d="M40.2,34c0.5,0.9-0.3,2.4-1.9,3.1c-1.5,0.8-3.2,0.7-3.6-0.3s0.2-2.6,1.9-3.1C38.2,33.1,39.7,33,40.2,34z      "></path></g><g><rect x="39" y="25" fill="#000000" width="2" height="9"></rect></g></g><g><path fill="#000000" d="M29,31l12-4v-1.8c0-1.6-1.6-2.7-3.1-2.2l-7.4,2.5c-0.9,0.3-1.6,1.2-1.6,2.2V31z"></path></g></g></g></svg>