<svg xmlns="http://www.w3.org/2000/svg" xmlns:xlink="http://www.w3.org/1999/xlink" version="1.1" x="0px" y="0px" viewBox="0 0 100 100" style="enable-background:new 0 0 100 100;" xml:space="preserve"><style type="text/css">
	.st0{fill:#060507;}
</style><g><path class="st0" d="M61.1,50.4c-2.2-2.6-5.4-4.1-9.3-3.8c-0.3-0.6-1.6-7-1.6-7s4.5-6.7,5.4-8c4.8-7.7,5.1-13.7,2.2-19.8   c-1-2.2-3.5-4.1-6.1-4.1c-1.9,0-3.5,1.6-4.5,3.5c-3.2,5.4-3.2,15.6-1.6,22.7c0,0-1.6,1.6-3.2,3.5c-3.2,3.5-6.7,7.3-8,12.4   C33,55.5,34.3,61,37.8,65.1c3.8,4.8,9.6,7,16.6,6.4c1.3,6.1,2.2,9.9,0.3,13.4c-0.6,1.3-1.9,2.6-4.1,2.6c-0.6,0-1,0-1.6-0.3   c1.9-1,3.5-2.9,3.5-5.1c0-3.2-2.6-5.7-5.7-5.7C41.3,76.6,41,82,41,82c0,1.9,0.6,3.8,1.9,5.1c1.6,1.6,4.1,2.9,7,2.9   c3.5,0,7-1.3,8.3-6.4c1.3-4.1-1-10.8-1.3-13.1c3.5-1.6,6.7-6.4,7-9.6C64.6,57.5,63.3,53.3,61.1,50.4z M50.9,15c0.3-0.6,1-1,1.6-1   c0.3,0,1,0.3,1.3,0.6c1.3,0.6,1.6,1.9,1.6,3.8C55,23.3,50.9,29.1,48.6,31C47.7,26.5,48.3,18.2,50.9,15z M41.6,65.1   c-2.2-2.2-3.2-5.4-2.9-8.6c0.6-5.1,4.1-9.3,7-12.4c0.6-0.6,1.3-1.3,1.6-1.9c0.3,1.6,1.3,4.1,1.6,5.4c-3.8,1.6-6.1,6.7-5.7,10.8   c0,1.9,0.6,3.2,1.6,4.5c0.3,0.3,0.6,0.6,1,0.6s1-0.3,1-0.6l0,0c0.3-0.3,0.3-1,0-1.3s-0.3-0.6-0.3-1.3c-0.3-2.9,1.6-5.1,3.8-6.1   c0.3,1.9,2.6,11.8,2.9,14C49,69.6,44.5,68.3,41.6,65.1z M56,67c-0.6-2.2-1-4.8-1.6-7.7c-0.3-1.9-0.6-4.1-1.3-6.1   c4.1,0,5.4,3.5,5.7,4.8C59.8,61.6,58.9,65.1,56,67z"/></g></svg>