<svg xmlns="http://www.w3.org/2000/svg" xmlns:xlink="http://www.w3.org/1999/xlink" version="1.1" x="0px" y="0px" viewBox="15 17 50 50" enable-background="new 0 0 80 80" xml:space="preserve"><g><path fill="#000000" d="M44,36.2v13.6c0,0.7-1,1.1-1.6,0.8l-7.3-3.6C35,47,34.7,47,34.6,47h-4.1C30,47,30,46.5,30,46v-6   c0-0.5,0-1,0.5-1h4.1c0.1,0,0.3,0,0.4-0.1l7.4-3.6C43,35,44,35.5,44,36.2z"/></g><g><path fill="#000000" d="M48.4,50.1L46.7,49c1.2-1.8,1.8-3.9,1.8-6c0-2.2-0.6-4.2-1.8-6l1.7-1.1c1.4,2.1,2.1,4.6,2.1,7.1   C50.5,45.5,49.8,48,48.4,50.1z"/></g></svg>