<svg xmlns="http://www.w3.org/2000/svg" xmlns:xlink="http://www.w3.org/1999/xlink" version="1.1" x="0px" y="0px" viewBox="15 17 50 50" enable-background="new 0 0 80 80" xml:space="preserve"><g><path fill="#000000" d="M37,36.2v13.6c0,0.7-1,1.1-1.6,0.8l-7.3-3.6C28,47,27.7,47,27.6,47h-4.1C23,47,23,46.5,23,46v-6   c0-0.5,0-1,0.5-1h4.1c0.1,0,0.3,0,0.4-0.1l7.4-3.6C36,35,37,35.5,37,36.2z"/></g><g><path fill="#000000" d="M41.4,50.1L39.7,49c1.2-1.8,1.8-3.9,1.8-6s-0.6-4.2-1.8-6l1.7-1.1c1.4,2.1,2.1,4.6,2.1,7.1   S42.8,48,41.4,50.1z"/></g><g><path fill="#000000" d="M46.4,52.1L44.7,51c1.6-2.4,2.4-5.2,2.4-8s-0.8-5.6-2.4-8l1.7-1.1c1.8,2.7,2.8,5.9,2.8,9.1   C49.1,46.3,48.2,49.4,46.4,52.1z"/></g><g><path fill="#000000" d="M52,54.1L50.4,53c2-3,3-6.4,3-10c0-3.6-1-7-3-10l1.7-1.1c2.2,3.3,3.4,7.1,3.4,11.1   C55.4,47,54.2,50.8,52,54.1z"/></g></svg>